STARTFONT 2.1
FONT No-Name-Font
SIZE 14 75 75
FONTBOUNDINGBOX 6 14 0 -2
COMMENT "Generated by fontforge, http://fontforge.sourceforge.net"
COMMENT "BDF generated by bmptobdf. E-mail to author at <tatrader@gmail.com>."
COMMENT "Original font by program user"
STARTPROPERTIES 2
FONT_DESCENT 2
FONT_ASCENT 9
ENDPROPERTIES
CHARS 95
STARTCHAR char0020
ENCODING 32
SWIDTH 500 0
DWIDTH 6 0
BBX 1 1 5 -2
BITMAP
00
ENDCHAR
STARTCHAR char0021
ENCODING 33
SWIDTH 500 0
DWIDTH 6 0
BBX 1 8 3 0
BITMAP
80
80
80
80
80
80
00
80
ENDCHAR
STARTCHAR char0022
ENCODING 34
SWIDTH 500 0
DWIDTH 6 0
BBX 4 2 1 6
BITMAP
90
90
ENDCHAR
STARTCHAR char0023
ENCODING 35
SWIDTH 500 0
DWIDTH 6 0
BBX 5 7 1 0
BITMAP
50
50
F8
50
F8
50
50
ENDCHAR
STARTCHAR char0024
ENCODING 36
SWIDTH 500 0
DWIDTH 6 0
BBX 5 9 1 -1
BITMAP
20
70
A8
A0
70
28
A8
70
20
ENDCHAR
STARTCHAR char0025
ENCODING 37
SWIDTH 500 0
DWIDTH 6 0
BBX 6 8 0 0
BITMAP
44
A4
A8
50
28
54
94
88
ENDCHAR
STARTCHAR char0026
ENCODING 38
SWIDTH 500 0
DWIDTH 6 0
BBX 6 8 0 0
BITMAP
60
90
80
40
A0
94
88
74
ENDCHAR
STARTCHAR char0027
ENCODING 39
SWIDTH 500 0
DWIDTH 6 0
BBX 2 3 2 5
BITMAP
40
40
80
ENDCHAR
STARTCHAR char0028
ENCODING 40
SWIDTH 500 0
DWIDTH 6 0
BBX 3 10 2 -2
BITMAP
20
40
40
80
80
80
80
40
40
20
ENDCHAR
STARTCHAR char0029
ENCODING 41
SWIDTH 500 0
DWIDTH 6 0
BBX 3 10 2 -2
BITMAP
80
40
40
20
20
20
20
40
40
80
ENDCHAR
STARTCHAR char002a
ENCODING 42
SWIDTH 500 0
DWIDTH 6 0
BBX 5 6 1 2
BITMAP
20
A8
70
70
A8
20
ENDCHAR
STARTCHAR char002b
ENCODING 43
SWIDTH 500 0
DWIDTH 6 0
BBX 5 5 1 1
BITMAP
20
20
F8
20
20
ENDCHAR
STARTCHAR char002c
ENCODING 44
SWIDTH 500 0
DWIDTH 6 0
BBX 2 2 2 -1
BITMAP
40
80
ENDCHAR
STARTCHAR char002d
ENCODING 45
SWIDTH 500 0
DWIDTH 6 0
BBX 5 1 1 3
BITMAP
F8
ENDCHAR
STARTCHAR char002e
ENCODING 46
SWIDTH 500 0
DWIDTH 6 0
BBX 1 1 3 0
BITMAP
80
ENDCHAR
STARTCHAR char002f
ENCODING 47
SWIDTH 500 0
DWIDTH 6 0
BBX 4 8 1 0
BITMAP
10
10
20
20
40
40
80
80
ENDCHAR
STARTCHAR char0030
ENCODING 48
SWIDTH 500 0
DWIDTH 6 0
BBX 5 8 1 0
BITMAP
70
88
98
A8
C8
88
88
70
ENDCHAR
STARTCHAR char0031
ENCODING 49
SWIDTH 500 0
DWIDTH 6 0
BBX 5 8 1 0
BITMAP
20
60
A0
20
20
20
20
F8
ENDCHAR
STARTCHAR char0032
ENCODING 50
SWIDTH 500 0
DWIDTH 6 0
BBX 5 8 1 0
BITMAP
70
88
08
10
20
40
80
F8
ENDCHAR
STARTCHAR char0033
ENCODING 51
SWIDTH 500 0
DWIDTH 6 0
BBX 5 8 1 0
BITMAP
70
88
08
30
08
08
88
70
ENDCHAR
STARTCHAR char0034
ENCODING 52
SWIDTH 500 0
DWIDTH 6 0
BBX 5 8 1 0
BITMAP
10
30
50
90
F8
10
10
10
ENDCHAR
STARTCHAR char0035
ENCODING 53
SWIDTH 500 0
DWIDTH 6 0
BBX 5 8 1 0
BITMAP
F8
80
80
F0
88
08
08
F0
ENDCHAR
STARTCHAR char0036
ENCODING 54
SWIDTH 500 0
DWIDTH 6 0
BBX 5 8 1 0
BITMAP
30
40
80
F0
88
88
88
70
ENDCHAR
STARTCHAR char0037
ENCODING 55
SWIDTH 500 0
DWIDTH 6 0
BBX 5 8 1 0
BITMAP
F8
88
08
10
10
20
20
20
ENDCHAR
STARTCHAR char0038
ENCODING 56
SWIDTH 500 0
DWIDTH 6 0
BBX 5 8 1 0
BITMAP
70
88
88
70
88
88
88
70
ENDCHAR
STARTCHAR char0039
ENCODING 57
SWIDTH 500 0
DWIDTH 6 0
BBX 5 8 1 0
BITMAP
70
88
88
88
78
08
10
60
ENDCHAR
STARTCHAR char003a
ENCODING 58
SWIDTH 500 0
DWIDTH 6 0
BBX 1 6 3 0
BITMAP
80
00
00
00
00
80
ENDCHAR
STARTCHAR char003b
ENCODING 59
SWIDTH 500 0
DWIDTH 6 0
BBX 2 7 2 -1
BITMAP
40
00
00
00
00
40
80
ENDCHAR
STARTCHAR char003c
ENCODING 60
SWIDTH 500 0
DWIDTH 6 0
BBX 5 5 1 1
BITMAP
08
30
C0
30
08
ENDCHAR
STARTCHAR char003d
ENCODING 61
SWIDTH 500 0
DWIDTH 6 0
BBX 5 3 1 2
BITMAP
F8
00
F8
ENDCHAR
STARTCHAR char003e
ENCODING 62
SWIDTH 500 0
DWIDTH 6 0
BBX 5 5 1 1
BITMAP
80
60
18
60
80
ENDCHAR
STARTCHAR char003f
ENCODING 63
SWIDTH 500 0
DWIDTH 6 0
BBX 5 8 1 0
BITMAP
70
88
88
08
10
20
00
20
ENDCHAR
STARTCHAR char0040
ENCODING 64
SWIDTH 500 0
DWIDTH 6 0
BBX 5 9 1 -1
BITMAP
30
48
98
A8
A8
A8
98
40
38
ENDCHAR
STARTCHAR char0041
ENCODING 65
SWIDTH 500 0
DWIDTH 6 0
BBX 5 8 1 0
BITMAP
20
20
20
50
50
F8
88
88
ENDCHAR
STARTCHAR char0042
ENCODING 66
SWIDTH 500 0
DWIDTH 6 0
BBX 5 8 1 0
BITMAP
F0
88
88
F0
88
88
88
F0
ENDCHAR
STARTCHAR char0043
ENCODING 67
SWIDTH 500 0
DWIDTH 6 0
BBX 5 8 1 0
BITMAP
70
88
80
80
80
80
88
70
ENDCHAR
STARTCHAR char0044
ENCODING 68
SWIDTH 500 0
DWIDTH 6 0
BBX 5 8 1 0
BITMAP
E0
90
88
88
88
88
90
E0
ENDCHAR
STARTCHAR char0045
ENCODING 69
SWIDTH 500 0
DWIDTH 6 0
BBX 5 8 1 0
BITMAP
F8
80
80
F0
80
80
80
F8
ENDCHAR
STARTCHAR char0046
ENCODING 70
SWIDTH 500 0
DWIDTH 6 0
BBX 5 8 1 0
BITMAP
F8
80
80
F0
80
80
80
80
ENDCHAR
STARTCHAR char0047
ENCODING 71
SWIDTH 500 0
DWIDTH 6 0
BBX 5 8 1 0
BITMAP
70
88
80
80
98
88
88
70
ENDCHAR
STARTCHAR char0048
ENCODING 72
SWIDTH 500 0
DWIDTH 6 0
BBX 5 8 1 0
BITMAP
88
88
88
F8
88
88
88
88
ENDCHAR
STARTCHAR char0049
ENCODING 73
SWIDTH 500 0
DWIDTH 6 0
BBX 3 8 2 0
BITMAP
E0
40
40
40
40
40
40
E0
ENDCHAR
STARTCHAR char004a
ENCODING 74
SWIDTH 500 0
DWIDTH 6 0
BBX 5 8 1 0
BITMAP
08
08
08
08
08
88
88
70
ENDCHAR
STARTCHAR char004b
ENCODING 75
SWIDTH 500 0
DWIDTH 6 0
BBX 5 8 1 0
BITMAP
88
90
A0
C0
C0
A0
90
88
ENDCHAR
STARTCHAR char004c
ENCODING 76
SWIDTH 500 0
DWIDTH 6 0
BBX 5 8 1 0
BITMAP
80
80
80
80
80
80
80
F8
ENDCHAR
STARTCHAR char004d
ENCODING 77
SWIDTH 500 0
DWIDTH 6 0
BBX 5 8 1 0
BITMAP
88
D8
D8
A8
88
88
88
88
ENDCHAR
STARTCHAR char004e
ENCODING 78
SWIDTH 500 0
DWIDTH 6 0
BBX 5 8 1 0
BITMAP
88
C8
C8
A8
A8
98
98
88
ENDCHAR
STARTCHAR char004f
ENCODING 79
SWIDTH 500 0
DWIDTH 6 0
BBX 5 8 1 0
BITMAP
70
88
88
88
88
88
88
70
ENDCHAR
STARTCHAR char0050
ENCODING 80
SWIDTH 500 0
DWIDTH 6 0
BBX 5 8 1 0
BITMAP
F0
88
88
88
F0
80
80
80
ENDCHAR
STARTCHAR char0051
ENCODING 81
SWIDTH 500 0
DWIDTH 6 0
BBX 6 10 0 -2
BITMAP
70
88
88
88
88
88
88
70
10
0C
ENDCHAR
STARTCHAR char0052
ENCODING 82
SWIDTH 500 0
DWIDTH 6 0
BBX 5 8 1 0
BITMAP
F0
88
88
88
F0
A0
90
88
ENDCHAR
STARTCHAR char0053
ENCODING 83
SWIDTH 500 0
DWIDTH 6 0
BBX 5 8 1 0
BITMAP
70
88
80
70
08
08
88
70
ENDCHAR
STARTCHAR char0054
ENCODING 84
SWIDTH 500 0
DWIDTH 6 0
BBX 5 8 1 0
BITMAP
F8
20
20
20
20
20
20
20
ENDCHAR
STARTCHAR char0055
ENCODING 85
SWIDTH 500 0
DWIDTH 6 0
BBX 5 8 1 0
BITMAP
88
88
88
88
88
88
88
70
ENDCHAR
STARTCHAR char0056
ENCODING 86
SWIDTH 500 0
DWIDTH 6 0
BBX 5 8 1 0
BITMAP
88
88
88
88
50
50
20
20
ENDCHAR
STARTCHAR char0057
ENCODING 87
SWIDTH 500 0
DWIDTH 6 0
BBX 5 8 1 0
BITMAP
88
88
A8
A8
A8
50
50
50
ENDCHAR
STARTCHAR char0058
ENCODING 88
SWIDTH 500 0
DWIDTH 6 0
BBX 5 8 1 0
BITMAP
88
88
50
20
20
50
88
88
ENDCHAR
STARTCHAR char0059
ENCODING 89
SWIDTH 500 0
DWIDTH 6 0
BBX 5 8 1 0
BITMAP
88
88
50
50
20
20
20
20
ENDCHAR
STARTCHAR char005a
ENCODING 90
SWIDTH 500 0
DWIDTH 6 0
BBX 5 8 1 0
BITMAP
F8
08
10
20
20
40
80
F8
ENDCHAR
STARTCHAR char005b
ENCODING 91
SWIDTH 500 0
DWIDTH 6 0
BBX 3 10 2 -2
BITMAP
E0
80
80
80
80
80
80
80
80
E0
ENDCHAR
STARTCHAR char005c
ENCODING 92
SWIDTH 500 0
DWIDTH 6 0
BBX 4 8 1 0
BITMAP
80
80
40
40
20
20
10
10
ENDCHAR
STARTCHAR char005d
ENCODING 93
SWIDTH 500 0
DWIDTH 6 0
BBX 3 10 2 -2
BITMAP
E0
20
20
20
20
20
20
20
20
E0
ENDCHAR
STARTCHAR char005e
ENCODING 94
SWIDTH 500 0
DWIDTH 6 0
BBX 5 3 1 5
BITMAP
20
50
88
ENDCHAR
STARTCHAR char005f
ENCODING 95
SWIDTH 500 0
DWIDTH 6 0
BBX 6 1 0 -2
BITMAP
FC
ENDCHAR
STARTCHAR char0060
ENCODING 96
SWIDTH 500 0
DWIDTH 6 0
BBX 2 2 2 6
BITMAP
80
40
ENDCHAR
STARTCHAR char0061
ENCODING 97
SWIDTH 500 0
DWIDTH 6 0
BBX 5 6 1 0
BITMAP
70
88
78
88
88
78
ENDCHAR
STARTCHAR char0062
ENCODING 98
SWIDTH 500 0
DWIDTH 6 0
BBX 5 8 1 0
BITMAP
80
80
F0
88
88
88
88
F0
ENDCHAR
STARTCHAR char0063
ENCODING 99
SWIDTH 500 0
DWIDTH 6 0
BBX 5 6 1 0
BITMAP
70
88
80
80
88
70
ENDCHAR
STARTCHAR char0064
ENCODING 100
SWIDTH 500 0
DWIDTH 6 0
BBX 5 8 1 0
BITMAP
08
08
78
88
88
88
88
78
ENDCHAR
STARTCHAR char0065
ENCODING 101
SWIDTH 500 0
DWIDTH 6 0
BBX 5 6 1 0
BITMAP
70
88
F8
80
88
70
ENDCHAR
STARTCHAR char0066
ENCODING 102
SWIDTH 500 0
DWIDTH 6 0
BBX 4 8 1 0
BITMAP
30
40
F0
40
40
40
40
40
ENDCHAR
STARTCHAR char0067
ENCODING 103
SWIDTH 500 0
DWIDTH 6 0
BBX 5 8 1 -2
BITMAP
78
88
88
88
88
78
08
70
ENDCHAR
STARTCHAR char0068
ENCODING 104
SWIDTH 500 0
DWIDTH 6 0
BBX 5 8 1 0
BITMAP
80
80
F0
88
88
88
88
88
ENDCHAR
STARTCHAR char0069
ENCODING 105
SWIDTH 500 0
DWIDTH 6 0
BBX 5 8 1 0
BITMAP
20
00
E0
20
20
20
20
F8
ENDCHAR
STARTCHAR char006a
ENCODING 106
SWIDTH 500 0
DWIDTH 6 0
BBX 4 10 1 -2
BITMAP
10
00
70
10
10
10
10
10
10
E0
ENDCHAR
STARTCHAR char006b
ENCODING 107
SWIDTH 500 0
DWIDTH 6 0
BBX 5 8 1 0
BITMAP
80
80
90
A0
C0
A0
90
88
ENDCHAR
STARTCHAR char006c
ENCODING 108
SWIDTH 500 0
DWIDTH 6 0
BBX 5 8 1 0
BITMAP
60
20
20
20
20
20
20
F8
ENDCHAR
STARTCHAR char006d
ENCODING 109
SWIDTH 500 0
DWIDTH 6 0
BBX 5 6 1 0
BITMAP
D0
A8
A8
A8
A8
A8
ENDCHAR
STARTCHAR char006e
ENCODING 110
SWIDTH 500 0
DWIDTH 6 0
BBX 5 6 1 0
BITMAP
B0
C8
88
88
88
88
ENDCHAR
STARTCHAR char006f
ENCODING 111
SWIDTH 500 0
DWIDTH 6 0
BBX 5 6 1 0
BITMAP
70
88
88
88
88
70
ENDCHAR
STARTCHAR char0070
ENCODING 112
SWIDTH 500 0
DWIDTH 6 0
BBX 5 8 1 -2
BITMAP
F0
88
88
88
88
F0
80
80
ENDCHAR
STARTCHAR char0071
ENCODING 113
SWIDTH 500 0
DWIDTH 6 0
BBX 5 8 1 -2
BITMAP
78
88
88
88
88
78
08
08
ENDCHAR
STARTCHAR char0072
ENCODING 114
SWIDTH 500 0
DWIDTH 6 0
BBX 5 6 1 0
BITMAP
D8
60
40
40
40
E0
ENDCHAR
STARTCHAR char0073
ENCODING 115
SWIDTH 500 0
DWIDTH 6 0
BBX 5 6 1 0
BITMAP
70
88
70
08
88
70
ENDCHAR
STARTCHAR char0074
ENCODING 116
SWIDTH 500 0
DWIDTH 6 0
BBX 5 8 1 0
BITMAP
40
40
F0
40
40
40
48
30
ENDCHAR
STARTCHAR char0075
ENCODING 117
SWIDTH 500 0
DWIDTH 6 0
BBX 5 6 1 0
BITMAP
88
88
88
88
98
68
ENDCHAR
STARTCHAR char0076
ENCODING 118
SWIDTH 500 0
DWIDTH 6 0
BBX 5 6 1 0
BITMAP
88
88
50
50
20
20
ENDCHAR
STARTCHAR char0077
ENCODING 119
SWIDTH 500 0
DWIDTH 6 0
BBX 5 6 1 0
BITMAP
88
88
A8
A8
50
50
ENDCHAR
STARTCHAR char0078
ENCODING 120
SWIDTH 500 0
DWIDTH 6 0
BBX 5 6 1 0
BITMAP
88
50
20
20
50
88
ENDCHAR
STARTCHAR char0079
ENCODING 121
SWIDTH 500 0
DWIDTH 6 0
BBX 5 8 1 -2
BITMAP
88
88
50
50
20
20
40
80
ENDCHAR
STARTCHAR char007a
ENCODING 122
SWIDTH 500 0
DWIDTH 6 0
BBX 5 6 1 0
BITMAP
F8
10
20
40
80
F8
ENDCHAR
STARTCHAR char007b
ENCODING 123
SWIDTH 500 0
DWIDTH 6 0
BBX 3 10 2 -2
BITMAP
20
40
40
40
80
40
40
40
40
20
ENDCHAR
STARTCHAR char007c
ENCODING 124
SWIDTH 500 0
DWIDTH 6 0
BBX 1 10 3 -2
BITMAP
80
80
80
80
80
80
80
80
80
80
ENDCHAR
STARTCHAR char007d
ENCODING 125
SWIDTH 500 0
DWIDTH 6 0
BBX 3 10 2 -2
BITMAP
80
40
40
40
20
40
40
40
40
80
ENDCHAR
STARTCHAR asciitilde
ENCODING 126
SWIDTH 500 0
DWIDTH 5 0
BBX 5 2 0 3
BITMAP
68
90
ENDCHAR
ENDFONT
